<svg width="24" height="24" viewBox="0 0 24 24" fill="none" xmlns="http://www.w3.org/2000/svg">
<path d="M6 5.5C5.71875 5.5 5.5 5.75 5.5 6V18C5.5 18.2812 5.71875 18.5 6 18.5H8.5V16.5C8.5 15.6875 9.15625 15 10 15C10.8125 15 11.5 15.6875 11.5 16.5V18.5H13.6875C14.0312 18.9688 14.4375 19.375 14.9375 19.7812C14.6562 19.9375 14.3125 20 14 20H6C4.875 20 4 19.125 4 18V6C4 4.90625 4.875 4 6 4H14C15.0938 4 16 4.90625 16 6V10.4688L14.5 11.0938V6C14.5 5.75 14.25 5.5 14 5.5H6ZM13.25 11.25V11.5938L13.0938 11.6562C12.4375 11.9062 12 12.5625 12 13.25H11.25C10.9688 13.25 10.75 13.0312 10.75 12.75V11.25C10.75 11 10.9688 10.75 11.25 10.75H12.75C13 10.75 13.25 11 13.25 11.25ZM6.75 7.25C6.75 7 6.96875 6.75 7.25 6.75H8.75C9 6.75 9.25 7 9.25 7.25V8.75C9.25 9.03125 9 9.25 8.75 9.25H7.25C6.96875 9.25 6.75 9.03125 6.75 8.75V7.25ZM11.25 6.75H12.75C13 6.75 13.25 7 13.25 7.25V8.75C13.25 9.03125 13 9.25 12.75 9.25H11.25C10.9688 9.25 10.75 9.03125 10.75 8.75V7.25C10.75 7 10.9688 6.75 11.25 6.75ZM6.75 11.25C6.75 11 6.96875 10.75 7.25 10.75H8.75C9 10.75 9.25 11 9.25 11.25V12.75C9.25 13.0312 9 13.25 8.75 13.25H7.25C6.96875 13.25 6.75 13.0312 6.75 12.75V11.25ZM17.2188 11.0625C17.375 11 17.5938 11 17.75 11.0625L21.5 12.5625C21.8125 12.6875 22 12.9688 22 13.25C22 15.25 21.1875 18.5312 17.7812 19.9688C17.5938 20.0312 17.375 20.0312 17.1875 19.9688C13.7812 18.5312 13 15.25 13 13.25C13 12.9688 13.1875 12.6875 13.4688 12.5625L17.2188 11.0625ZM20.4688 13.75L17.5 12.5625V18.4375C19.625 17.4062 20.3438 15.3438 20.4688 13.75Z" fill="#525252"/>
</svg>
