<svg width="24" height="24" viewBox="0 0 24 24" fill="none" xmlns="http://www.w3.org/2000/svg">
<path d="M6.5 7.5C6.5 8.625 5.59375 9.5 4.5 9.5V14.5C5.59375 14.5 6.5 15.4062 6.5 16.5H17.5C17.5 15.4062 18.375 14.5 19.5 14.5V9.5C18.375 9.5 17.5 8.625 17.5 7.5H6.5ZM3 8C3 6.90625 3.875 6 5 6H19C20.0938 6 21 6.90625 21 8V16C21 17.125 20.0938 18 19 18H5C3.875 18 3 17.125 3 16V8ZM12 9C13.0625 9 14.0312 9.59375 14.5938 10.5C15.125 11.4375 15.125 12.5938 14.5938 13.5C14.0312 14.4375 13.0625 15 12 15C10.9062 15 9.9375 14.4375 9.375 13.5C8.84375 12.5938 8.84375 11.4375 9.375 10.5C9.9375 9.59375 10.9062 9 12 9Z" fill="#525252"/>
</svg>
