<svg width="24" height="24" viewBox="0 0 24 24" fill="none" xmlns="http://www.w3.org/2000/svg">
<path d="M12.0156 5.5C9.67188 5.5 7.54688 6.75 6.35938 8.75C5.20312 10.7812 5.20312 13.25 6.35938 15.25C7.54688 17.2812 9.67188 18.5 12.0156 18.5C14.3281 18.5 16.4531 17.2812 17.6406 15.25C18.7969 13.25 18.7969 10.7812 17.6406 8.75C16.4531 6.75 14.3281 5.5 12.0156 5.5ZM12.0156 20C9.14062 20 6.51562 18.5 5.07812 16C3.64062 13.5312 3.64062 10.5 5.07812 8C6.51562 5.53125 9.14062 4 12.0156 4C14.8594 4 17.4844 5.53125 18.9219 8C20.3594 10.5 20.3594 13.5312 18.9219 16C17.4844 18.5 14.8594 20 12.0156 20ZM13.7656 15C13.7656 15.9688 12.9531 16.75 12.0156 16.75C11.0469 16.75 10.2656 15.9688 10.2656 15C10.2656 14.3125 10.6719 13.7188 11.2656 13.4375V7.75C11.2656 7.34375 11.5781 7 12.0156 7C12.4219 7 12.7656 7.34375 12.7656 7.75V13.4375C13.3281 13.7188 13.7656 14.3125 13.7656 15ZM9.01562 10C8.45312 10 8.01562 9.5625 8.01562 9C8.01562 8.46875 8.45312 8 9.01562 8C9.54688 8 10.0156 8.46875 10.0156 9C10.0156 9.5625 9.54688 10 9.01562 10ZM8.51562 12C8.51562 12.5625 8.04688 13 7.51562 13C6.95312 13 6.51562 12.5625 6.51562 12C6.51562 11.4688 6.95312 11 7.51562 11C8.04688 11 8.51562 11.4688 8.51562 12ZM16.5156 13C15.9531 13 15.5156 12.5625 15.5156 12C15.5156 11.4688 15.9531 11 16.5156 11C17.0469 11 17.5156 11.4688 17.5156 12C17.5156 12.5625 17.0469 13 16.5156 13ZM16.0156 9C16.0156 9.5625 15.5469 10 15.0156 10C14.4531 10 14.0156 9.5625 14.0156 9C14.0156 8.46875 14.4531 8 15.0156 8C15.5469 8 16.0156 8.46875 16.0156 9Z" fill="#525252"/>
</svg>
