<svg width="24" height="24" viewBox="0 0 24 24" fill="none" xmlns="http://www.w3.org/2000/svg">
<path d="M8 5.5C7.71875 5.5 7.5 5.75 7.5 6V18C7.5 18.2812 7.71875 18.5 8 18.5H15C15.25 18.5 15.5 18.2812 15.5 18V6C15.5 5.75 15.25 5.5 15 5.5H8ZM6 6C6 4.90625 6.875 4 8 4H15C16.0938 4 17 4.90625 17 6V18C17 19.125 16.0938 20 15 20H8C6.875 20 6 19.125 6 18V6ZM10.5 16.5H12.5C12.75 16.5 13 16.75 13 17C13 17.2812 12.75 17.5 12.5 17.5H10.5C10.2188 17.5 10 17.2812 10 17C10 16.75 10.2188 16.5 10.5 16.5Z" fill="#525252"/>
</svg>
