<svg width="24" height="24" viewBox="0 0 24 24" fill="none" xmlns="http://www.w3.org/2000/svg">
<path d="M9.1875 6.3125C8.875 6.59375 8.40625 6.5625 8.125 6.25C7.84375 5.9375 7.875 5.46875 8.1875 5.1875C9.75 3.84375 11.7812 3 14 3C16.1875 3 18.2188 3.84375 19.7812 5.1875C20.0938 5.46875 20.125 5.9375 19.8438 6.25C19.5625 6.5625 19.0938 6.59375 18.7812 6.3125C17.5 5.1875 15.8125 4.5 14 4.5C12.1562 4.5 10.4688 5.1875 9.1875 6.3125ZM5 14C4.71875 14 4.5 14.25 4.5 14.5V17C4.5 17.2812 4.71875 17.5 5 17.5H19C19.25 17.5 19.5 17.2812 19.5 17V14.5C19.5 14.25 19.25 14 19 14H5ZM3 14.5C3 13.4062 3.875 12.5 5 12.5H13.25V10.75C13.25 10.3438 13.5625 10 14 10C14.4062 10 14.75 10.3438 14.75 10.75V12.5H19C20.0938 12.5 21 13.4062 21 14.5V17C21 18.125 20.0938 19 19 19H5C3.875 19 3 18.125 3 17V14.5ZM6.25 15C6.65625 15 7 15.3438 7 15.75C7 16.1875 6.65625 16.5 6.25 16.5C5.8125 16.5 5.5 16.1875 5.5 15.75C5.5 15.3438 5.8125 15 6.25 15ZM8 15.75C8 15.3438 8.3125 15 8.75 15C9.15625 15 9.5 15.3438 9.5 15.75C9.5 16.1875 9.15625 16.5 8.75 16.5C8.3125 16.5 8 16.1875 8 15.75ZM14 8C13.0938 8 12.2812 8.3125 11.625 8.84375C11.3125 9.09375 10.8438 9.0625 10.5625 8.75C10.3125 8.40625 10.3438 7.9375 10.6875 7.6875C11.5938 6.9375 12.75 6.5 14 6.5C15.25 6.5 16.375 6.9375 17.2812 7.6875C17.625 7.9375 17.6562 8.40625 17.4062 8.75C17.125 9.0625 16.6562 9.125 16.3438 8.84375C15.6875 8.3125 14.875 8 14 8Z" fill="#525252"/>
</svg>
